<?xml version="1.0" encoding="UTF-8"?>
<svg width="52px" height="48px" viewBox="0 0 52 48" version="1.1" xmlns="http://www.w3.org/2000/svg" xmlns:xlink="http://www.w3.org/1999/xlink">
    <!-- Generator: Sketch 49.2 (51160) - http://www.bohemiancoding.com/sketch -->
    <title>users</title>
    <desc>Created with Sketch.</desc>
    <defs>
        <linearGradient x1="0%" y1="0%" x2="100%" y2="87.962408%" id="linearGradient-1">
            <stop stop-color="#8EF3FF" offset="0%"></stop>
            <stop stop-color="#1096FF" offset="100%"></stop>
        </linearGradient>
    </defs>
    <g id="Page-1" stroke="none" stroke-width="1" fill="none" fill-rule="evenodd">
        <g id="首页" transform="translate(-142.000000, -465.000000)" fill="url(#linearGradient-1)" fill-rule="nonzero">
            <g id="users" transform="translate(142.000000, 465.000000)">
                <path d="M47.6889872,37.4304 L39.4308951,33.2622545 C38.6520256,32.8686545 38.1679335,32.0779636 38.1679335,31.1982545 L38.1679335,28.2475636 C38.3658926,28.0032 38.5742251,27.7248 38.7894731,27.4176 C39.8605269,25.8903273 40.7189258,24.1902545 41.3430588,22.3566545 C42.562798,21.792 43.3546343,20.5745455 43.3546343,19.2 L43.3546343,15.7090909 C43.3546343,14.8686545 43.0434322,14.0544 42.4901841,13.4181818 L42.4901841,8.77614545 C42.5385934,8.29614545 42.7287724,5.43883636 40.6817545,3.0816 C38.9061739,1.0368 36.0249616,0 32.1167826,0 C28.2086036,0 25.3273913,1.0368 23.5518107,3.08072727 C21.5047928,5.43796364 21.6949719,8.29614545 21.7433811,8.77527273 L21.7433811,13.4173091 C21.190133,14.0535273 20.8789309,14.8677818 20.8789309,15.7082182 L20.8789309,19.1991273 C20.8789309,20.2612364 21.3569719,21.2517818 22.1730128,21.9124364 C22.9648491,25.0778182 24.622,27.4629818 25.2011816,28.2283636 L25.2011816,31.1162182 C25.2011816,31.9610182 24.7447519,32.736 24.0108338,33.1409455 L16.2990742,37.3876364 C13.7921688,38.7682909 12.2352941,41.4161455 12.2352941,44.2996364 L12.2352941,48 L52,48 L52,44.4715636 C51.9991355,41.4711273 50.3471714,38.7726545 47.6889872,37.4304 Z" id="Shape"></path>
                <path d="M15.3352357,36.2452128 L22.9427337,32.0004043 C23.2556977,31.8250638 23.4509804,31.4892128 23.4509804,31.1245745 L23.4509804,28.6698085 C22.6962852,27.5950851 21.3651223,25.4316809 20.6053105,22.6419362 C19.6988235,21.7416809 19.1871658,20.5160426 19.1871658,19.212766 L19.1871658,15.7234043 C19.1871658,14.7428936 19.4873383,13.7876809 20.0399287,12.983383 L20.0399287,8.85459574 C20.0109348,8.52048936 19.9768242,7.74759574 20.1217939,6.76534043 C18.9475394,6.34661702 17.6411066,6.12765957 16.2024955,6.12765957 C7.34314153,6.12765957 6.82721996,13.852234 6.82210339,13.9787234 L6.82210339,17.9731702 C6.26951301,18.5890426 5.96934046,19.3 5.96934046,20.0057234 L5.96934046,23.0187872 C5.96934046,23.9600426 6.38122496,24.837617 7.08731266,25.4308085 C7.79084207,28.1437872 9.52109804,30.1937872 10.1947807,30.9134681 L10.1947807,33.3062979 C10.1947807,33.9928298 9.82979822,34.6226596 9.19619537,34.9768298 L3.52276364,38.6171064 C1.34992371,39.8296596 0,42.1561915 0,44.6877234 L0,48 L10.6595365,48 L10.6595365,44.3030213 C10.6595365,40.9418936 12.4511914,37.8546809 15.3352357,36.2452128 Z" id="Shape"></path>
            </g>
        </g>
    </g>
</svg>