<?xml version="1.0" encoding="UTF-8"?>
<svg width="41px" height="48px" viewBox="0 0 41 48" version="1.1" xmlns="http://www.w3.org/2000/svg" xmlns:xlink="http://www.w3.org/1999/xlink">
    <!-- Generator: Sketch 49.2 (51160) - http://www.bohemiancoding.com/sketch -->
    <title>安全保障</title>
    <desc>Created with Sketch.</desc>
    <defs>
        <linearGradient x1="0%" y1="0%" x2="100%" y2="87.962408%" id="linearGradient-1">
            <stop stop-color="#8EF3FF" offset="0%"></stop>
            <stop stop-color="#1096FF" offset="100%"></stop>
        </linearGradient>
    </defs>
    <g id="Page-1" stroke="none" stroke-width="1" fill="none" fill-rule="evenodd">
        <g id="首页" transform="translate(-639.000000, -467.000000)" fill="url(#linearGradient-1)">
            <path d="M679.006516,477.098844 C673.09445,474.662634 667.876062,471.722482 663.55523,468.386266 C661.162194,466.537911 657.838503,466.537911 655.445467,468.386266 C651.124635,471.721779 645.906247,474.662634 639.993484,477.098844 C639.395152,477.341909 639.002265,477.92654 639,478.577505 L639,491.724073 C639,503.10233 656.496786,515 659.5,515 C662.503214,515 680,503.101686 680,491.724073 L680,478.577505 C679.997503,477.92654 679.604906,477.341909 679.006516,477.098844 Z M665.985894,490.342157 L658.794359,500.502046 C658.346365,501.1359 657.356249,500.815897 657.356249,500.037423 L657.356249,493.721619 C657.356249,493.279849 657.00128,492.921639 656.563274,492.921639 L653.658544,492.921639 C653.361585,492.921639 653.08942,492.754342 652.953541,492.487897 C652.817663,492.221452 652.840599,491.900511 653.013177,491.656744 L660.20477,481.496855 C660.652764,480.86306 661.64288,481.183297 661.64288,481.961537 L661.64288,488.276404 C661.64288,488.718408 661.997849,489.076617 662.435855,489.076617 L665.341514,489.076617 C665.985894,489.077321 666.36107,489.812491 665.985894,490.342157 Z" id="安全保障"></path>
        </g>
    </g>
</svg>