<?xml version="1.0" encoding="UTF-8"?>
<svg width="50px" height="48px" viewBox="0 0 50 48" version="1.1" xmlns="http://www.w3.org/2000/svg" xmlns:xlink="http://www.w3.org/1999/xlink">
    <!-- Generator: Sketch 49.2 (51160) - http://www.bohemiancoding.com/sketch -->
    <title>魔法棒</title>
    <desc>Created with Sketch.</desc>
    <defs>
        <linearGradient x1="0%" y1="0%" x2="100%" y2="87.962408%" id="linearGradient-1">
            <stop stop-color="#8EF3FF" offset="0%"></stop>
            <stop stop-color="#1096FF" offset="100%"></stop>
        </linearGradient>
    </defs>
    <g id="Page-1" stroke="none" stroke-width="1" fill="none" fill-rule="evenodd">
        <g id="首页" transform="translate(-1124.000000, -464.000000)" fill="url(#linearGradient-1)">
            <path d="M1149.8283,501.828863 C1150.0823,502.078837 1150.41193,502.254946 1150.78556,502.31343 C1151.53053,502.428752 1152.25869,502.068555 1152.60155,501.40829 L1158.27066,490.492407 L1170.60678,492.389383 C1171.35174,492.502814 1172.02141,492.195672 1172.3627,491.534419 C1172.70299,490.873496 1172.44353,490.199659 1171.91054,489.675938 L1163.36542,481.278472 L1168.86029,470.005599 C1169.2029,469.344347 1169.18702,468.430241 1168.65312,467.904875 L1168.61986,467.936379 C1168.08629,467.412329 1167.20399,467.348416 1166.53076,467.685417 L1154.91338,473.105316 L1146.49716,464.703655 C1145.96425,464.180592 1145.27779,463.924859 1144.60489,464.259968 C1143.93232,464.594748 1143.68445,465.189209 1143.79953,465.921448 L1145.70181,478.078896 L1134.54949,483.684117 C1133.87792,484.021529 1133.50362,484.746036 1133.62227,485.478027 C1133.68076,485.844311 1133.85658,486.171113 1134.11157,486.421087 C1134.36524,486.670733 1134.69718,486.844209 1135.06983,486.902035 L1147.36788,488.825745 L1149.34256,500.887119 C1149.40196,501.25184 1149.57422,501.579546 1149.8283,501.828863 Z M1146.18077,493.879936 L1145.80457,492.088328 C1145.69048,491.165832 1144.93484,490.302149 1143.99082,490.154336 L1142.4544,489.914068 L1124.97041,505.054842 C1124.00479,505.890887 1123.7239,507.249091 1124.29048,508.378788 C1124.60042,508.997021 1124.99821,509.636393 1125.48073,510.109362 C1126.12103,510.736889 1126.9642,511.265134 1127.74242,511.671888 C1128.93987,512.297852 1130.42756,512.004447 1131.30365,510.993938 L1146.18077,493.879936 Z M1164.14654,505.10946 C1164.2167,505.1204 1164.28942,505.111105 1164.35536,505.078614 C1164.48658,505.013056 1164.55832,504.87462 1164.53374,504.732236 L1164.13007,502.376109 L1166.30001,501.291323 C1166.43056,501.225436 1166.49973,501.101724 1166.47483,500.959422 C1166.44992,500.817367 1166.32905,500.739964 1166.18302,500.717179 L1163.83826,500.352458 L1163.36443,497.959316 C1163.33985,497.816685 1163.22874,497.67463 1163.0823,497.651516 L1163.08072,497.660153 C1162.93428,497.637697 1162.78759,497.726369 1162.72165,497.854934 L1161.53487,500.012167 L1159.20981,499.632065 C1159.06378,499.609609 1158.92511,499.646213 1158.85917,499.774449 C1158.7929,499.902603 1158.82426,500.024094 1158.92933,500.126914 L1160.67425,501.829521 L1159.58245,503.96364 C1159.51684,504.092206 1159.54398,504.248327 1159.64972,504.350488 C1159.70242,504.401651 1159.76894,504.433402 1159.83877,504.444342 C1159.90827,504.454953 1159.98133,504.445329 1160.04694,504.412509 L1162.21356,503.336113 L1163.95815,505.015606 C1164.01085,505.06644 1164.07712,505.098849 1164.14654,505.10946 Z M1172.02339,484.095723 C1172.08247,484.104772 1172.14419,484.097039 1172.20012,484.069402 C1172.31132,484.013797 1172.37205,483.896501 1172.35136,483.775749 L1172.00949,481.779408 L1173.84774,480.860449 C1173.9586,480.804844 1174.01677,480.700133 1173.99575,480.579629 C1173.97474,480.458795 1173.87231,480.39332 1173.74854,480.374319 L1171.76186,480.064874 L1171.36051,478.037769 C1171.33982,477.916606 1171.24575,477.796102 1171.12165,477.776525 L1171.12008,477.784257 C1170.99622,477.764927 1170.87211,477.840109 1170.81594,477.949097 L1169.81044,479.776979 L1167.84064,479.455031 C1167.71687,479.435783 1167.59955,479.466629 1167.54362,479.575536 C1167.48736,479.684113 1167.51392,479.786932 1167.60311,479.873712 L1169.08136,481.316392 L1168.15637,483.124779 C1168.10077,483.233686 1168.12377,483.365706 1168.21362,483.452485 C1168.25822,483.495834 1168.31439,483.522814 1168.37355,483.531862 C1168.43238,483.541157 1168.49443,483.532767 1168.55003,483.504882 L1170.38579,482.593326 L1171.86404,484.015771 C1171.90831,484.05912 1171.96457,484.086429 1172.02339,484.095723 Z M1159.69431,466.905964 C1159.72989,466.878655 1159.75736,466.841393 1159.77027,466.797304 C1159.79575,466.708633 1159.76025,466.61552 1159.68041,466.56411 L1158.36176,465.720004 L1158.78355,464.253552 C1158.80878,464.164881 1158.779,464.079335 1158.69891,464.028583 C1158.61907,463.977832 1158.52922,463.999383 1158.45426,464.056221 L1157.25325,464.969751 L1155.88619,464.141356 C1155.80635,464.090275 1155.68903,464.079088 1155.61374,464.136256 L1155.61755,464.14078 C1155.54259,464.197948 1155.52157,464.303975 1155.55492,464.390096 L1156.08236,465.875467 L1154.88301,466.773204 C1154.80797,466.830124 1154.76536,466.909501 1154.79862,466.995951 C1154.83188,467.08232 1154.90461,467.120898 1155.00033,467.117361 L1156.58747,467.062743 L1157.14561,468.494154 C1157.1792,468.580604 1157.26649,468.636209 1157.36213,468.632343 C1157.40996,468.630451 1157.45463,468.614 1157.49013,468.586691 C1157.52603,468.559711 1157.55317,468.52212 1157.56608,468.477456 L1157.99044,467.016186 L1159.56632,466.951534 C1159.61414,466.949313 1159.65874,466.933273 1159.69431,466.905964 Z" id="魔法棒"></path>
        </g>
    </g>
</svg>