<?xml version="1.0" encoding="UTF-8"?>
<svg width="50px" height="48px" viewBox="0 0 50 48" version="1.1" xmlns="http://www.w3.org/2000/svg" xmlns:xlink="http://www.w3.org/1999/xlink">
    <!-- Generator: Sketch 49.2 (51160) - http://www.bohemiancoding.com/sketch -->
    <title>Fill 1</title>
    <desc>Created with Sketch.</desc>
    <defs>
        <linearGradient x1="0%" y1="0%" x2="100%" y2="87.962408%" id="linearGradient-1">
            <stop stop-color="#8EF3FF" offset="0%"></stop>
            <stop stop-color="#1096FF" offset="100%"></stop>
        </linearGradient>
    </defs>
    <g id="Page-1" stroke="none" stroke-width="1" fill="none" fill-rule="evenodd">
        <g id="首页" transform="translate(-1605.000000, -466.000000)" fill="url(#linearGradient-1)">
            <path d="M1632.44366,514 C1630.78564,514 1629.43693,512.638716 1629.43693,510.965542 L1629.43693,488.766928 C1629.43693,487.093226 1630.78564,485.732243 1632.44366,485.732243 L1651.99357,485.732243 C1653.65129,485.732243 1655,487.093226 1655,488.766928 L1655,510.965542 C1655,512.638716 1653.65129,514 1651.99357,514 L1632.44366,514 Z M1608.00643,514 C1606.34841,514 1605,512.638716 1605,510.965542 L1605,501.099609 C1605,499.426434 1606.34841,498.064546 1608.00643,498.064546 L1622.66849,498.064546 C1624.3271,498.064546 1625.67551,499.426132 1625.67551,501.099609 L1625.67551,510.965542 C1625.67551,512.638716 1624.3271,514 1622.66849,514 L1608.00643,514 Z M1608.00643,494.267832 C1606.34841,494.267832 1605,492.90685 1605,491.233072 L1605,469.03476 C1605,467.361284 1606.34841,466 1608.00643,466 L1622.66849,466 C1624.3271,466 1625.67551,467.361284 1625.67551,469.03476 L1625.67551,491.233072 C1625.67551,492.90685 1624.3271,494.267832 1622.66849,494.267832 L1608.00643,494.267832 Z M1632.44366,481.935454 C1630.78564,481.935454 1629.43693,480.573868 1629.43693,478.90009 L1629.43693,469.03476 C1629.43693,467.361284 1630.78564,466 1632.44366,466 L1651.99357,466 C1653.65129,466 1655,467.361284 1655,469.03476 L1655,478.900391 C1655,480.573868 1653.65129,481.935454 1651.99357,481.935454 L1632.44366,481.935454 Z" id="Fill-1"></path>
        </g>
    </g>
</svg>