<?xml version="1.0" encoding="UTF-8"?>
<svg width="75px" height="57px" viewBox="0 0 75 57" version="1.1" xmlns="http://www.w3.org/2000/svg" xmlns:xlink="http://www.w3.org/1999/xlink">
    <!-- Generator: Sketch 49.2 (51160) - http://www.bohemiancoding.com/sketch -->
    <title>Group 6</title>
    <desc>Created with Sketch.</desc>
    <defs></defs>
    <g id="Page-1" stroke="none" stroke-width="1" fill="none" fill-rule="evenodd">
        <g id="Group-6">
            <g id="Group-3">
                <path d="M16.6334261,34.2304933 L8.28316522,34.2304933 L13.9923826,53.7814933 C14.4549913,55.522616 16.0247304,56.7325546 17.8170783,56.7297571 C19.0922087,56.7451436 20.2988174,56.1503153 21.0678609,55.1278123 C21.8445565,54.154616 22.0842087,52.8551558 21.7054261,51.6668982 L16.6334261,34.2304933 Z" id="Fill-41" fill="#71C9FF"></path>
                <polyline id="Fill-127" fill="#1593FF" points="18.4605217 40.0902681 15.778087 40.0902681 17.6733913 47.5555196 20.5426087 47.5555196"></polyline>
                <path d="M67.0600696,9.95380859 L73.5550261,1.80525644" id="Stroke-128" stroke="#1593FF" stroke-width="1.39130435" stroke-linecap="round" stroke-linejoin="round"></path>
                <path d="M67.0600696,37.0195067 L74.241287,43.8528626" id="Stroke-129" stroke="#1593FF" stroke-width="1.39130435" stroke-linecap="round" stroke-linejoin="round"></path>
                <path d="M0.0672,24.8335362 C0.0358956522,27.0729718 1.70998261,29.088254 4.25293913,29.8733153 C4.25293913,29.8733153 4.33676522,19.9318859 4.33676522,19.7937571 C1.77641739,20.5725239 0.0734608696,22.5829104 0.0672,24.8335362" id="Fill-131" fill="#A4D8FF"></path>
                <path d="M55.098087,16.5511914 L54.3593043,16.5511914 L54.3593043,33.2679276 L55.098087,33.2679276 C59.6897391,33.2679276 63.4118261,29.5258601 63.4118261,24.9095595 C63.4118261,20.2932589 59.6897391,16.5511914 55.098087,16.5511914" id="Fill-132" fill="#1593FF"></path>
                <path d="M3.92556522,21.8030945 L3.92556522,28.5574196 C3.92556522,31.8043215 6.49843478,34.459892 9.72730435,34.5448675 L18.7930435,34.9298798 L18.7930435,15.2390025 L10.4546087,15.2390025 C6.86365217,15.2390025 3.92556522,18.1928613 3.92556522,21.8030945" id="Fill-133" fill="#1593FF"></path>
                <path d="M18.7930783,34.9439025 C31.4417739,34.9439025 45.7468174,44.8220374 51.6209043,49.3334301 C52.7426435,50.1954239 54.3593391,49.389381 54.3593391,47.9696264 L54.3593391,1.72933804 C54.3593391,0.328816564 52.779513,-0.483171166 51.6532522,0.340706135 C45.6960348,4.69788405 31.0049043,14.5214669 18.7930783,15.2079147 L18.7930783,34.9439025 Z" id="Fill-134" fill="#D2EEFF"></path>
                <path d="M18.7930783,15.2080896 C18.7930783,15.2080896 27.6108174,16.844654 49.2661217,2.4177092 L49.2661217,47.9491693 C49.2661217,47.9491693 36.7617739,36.4295742 18.7930783,34.9440773 L18.7930783,15.2080896 Z" id="Fill-282" fill="#71C9FF"></path>
            </g>
        </g>
    </g>
</svg>