<?xml version="1.0" encoding="UTF-8"?>
<svg width="65px" height="58px" viewBox="0 0 65 58" version="1.1" xmlns="http://www.w3.org/2000/svg" xmlns:xlink="http://www.w3.org/1999/xlink">
    <!-- Generator: Sketch 49.2 (51160) - http://www.bohemiancoding.com/sketch -->
    <title>Group 18</title>
    <desc>Created with Sketch.</desc>
    <defs>
        <polygon id="path-1" points="0 0.08152 7.37032 0.08152 7.37032 5.74032 0 5.74032"></polygon>
    </defs>
    <g id="Page-1" stroke="none" stroke-width="1" fill="none" fill-rule="evenodd">
        <g id="Group-18" transform="translate(-16.000000, -19.000000)">
            <rect id="Rectangle-12" x="0" y="0" width="96" height="96"></rect>
            <g id="Group-7" transform="translate(16.000000, 19.200000)">
                <g id="Group">
                    <g id="Group-77" transform="translate(0.000000, 39.488000)">
                        <mask id="mask-2" fill="white">
                            <use xlink:href="#path-1"></use>
                        </mask>
                        <g id="Clip-76"></g>
                        <polygon id="Fill-75" fill="#363D45" mask="url(#mask-2)" points="-8e-05 5.74032 7.37032 0.08152 7.37032 5.74032"></polygon>
                    </g>
                    <polygon id="Fill-78" fill="#363D45" points="64.50304 45.22832 57.13264 39.56952 57.13264 45.22832"></polygon>
                    <path d="M51.87844,39.6584 L12.62484,39.6584 C11.66604,39.6584 10.88884,38.8812 10.88884,37.9224 L10.88884,1.7364 C10.88884,0.778 11.66604,0.0004 12.62484,0.0004 L51.87844,0.0004 C52.83684,0.0004 53.61444,0.778 53.61444,1.7364 L53.61444,37.9224 C53.61444,38.8812 52.83684,39.6584 51.87844,39.6584" id="Fill-80" fill="#1593FF"></path>
                    <path d="M55.56204,49.26896 L8.94084,49.26896 C8.01684,49.26896 7.26804,48.52016 7.26804,47.59576 L7.26804,4.56216 C7.26804,3.63816 8.01684,2.88896 8.94084,2.88896 L55.56204,2.88896 C56.48644,2.88896 57.23564,3.63816 57.23564,4.56216 L57.23564,47.59576 C57.23564,48.52016 56.48644,49.26896 55.56204,49.26896" id="Fill-82" fill="#71C9FF"></path>
                    <path d="M58.11712,56.81504 L6.38632,56.81504 C5.44032,56.81504 4.67352,56.04824 4.67352,55.10224 L4.67352,7.33144 C4.67352,6.38544 5.44032,5.61904 6.38632,5.61904 L58.11712,5.61904 C59.06272,5.61904 59.82952,6.38544 59.82952,7.33144 L59.82952,55.10224 C59.82952,56.04824 59.06272,56.81504 58.11712,56.81504" id="Fill-84" fill="#D2EEFF"></path>
                    <polygon id="Fill-86" fill="#1593FF" points="9.9776 41.734 54.5252 41.734 54.5252 10.4248 9.9776 10.4248"></polygon>
                    <path d="M38.81868,45.22832 C38.81868,48.85512 35.87828,51.79552 32.25148,51.79552 C28.62468,51.79552 25.68428,48.85512 25.68428,45.22832 L-0.00012,45.22832 L-0.00012,55.98712 C-0.00012,56.87792 0.72188,57.59992 1.61228,57.59992 L62.89068,57.59992 C63.78108,57.59992 64.50308,56.87792 64.50308,55.98712 L64.50308,45.22832 L38.81868,45.22832 Z" id="Fill-88" fill="#1593FF"></path>
                    <path d="M45.64096,19.18692 C45.64096,21.74492 43.56696,23.81852 41.00896,23.81852 C38.45096,23.81852 36.37736,21.74492 36.37736,19.18692 C36.37736,16.62852 38.45096,14.55532 41.00896,14.55532 C43.56696,14.55532 45.64096,16.62852 45.64096,19.18692" id="Fill-89" fill="#EBFAFF"></path>
                    <path d="M17.3472,38.51468 L47.2352,38.51468 C48.1688,38.51468 48.6704,37.41748 48.0588,36.71148 L41.4056,29.02548 C40.994,28.55028 40.2664,28.52108 39.818,28.96188 L35.6664,33.04268 L28.2368,25.53388 C27.7972,25.08948 27.0756,25.10508 26.6556,25.56708 L16.5404,36.69148 C15.9044,37.39148 16.4008,38.51468 17.3472,38.51468" id="Fill-90" fill="#EBFAFF"></path>
                </g>
            </g>
        </g>
    </g>
</svg>