<?xml version="1.0" encoding="UTF-8"?>
<svg width="222px" height="253px" viewBox="0 0 222 253" version="1.1" xmlns="http://www.w3.org/2000/svg" xmlns:xlink="http://www.w3.org/1999/xlink">
    <!-- Generator: Sketch 49.2 (51160) - http://www.bohemiancoding.com/sketch -->
    <title>Group 7</title>
    <desc>Created with Sketch.</desc>
    <defs>
        <polygon id="path-1" points="0.0105691275 0.240446512 19.5060322 0.240446512 19.5060322 10.0465116 0.0105691275 10.0465116"></polygon>
        <polygon id="path-3" points="0.58751634 0.343482639 33.9860609 0.343482639 33.9860609 28.9983681 0.58751634 28.9983681"></polygon>
        <polygon id="path-5" points="0.581091068 0.0824885417 12.0953551 0.0824885417 12.0953551 16.435249 0.581091068 16.435249"></polygon>
    </defs>
    <g id="Page-1" stroke="none" stroke-width="1" fill="none" fill-rule="evenodd">
        <g id="Group-7">
            <g id="Group" transform="translate(98.000000, 0.000000)">
                <path d="M97.5936591,240.144195 L97.5936591,249.002707 L95.0778738,249.002707 L95.0778738,247.277219 C95.0778738,247.277219 86.2722094,249.002707 79.9823302,249.002707 L79.9823302,247.736847 C79.9823302,247.736847 92.5620886,246.471823 93.8203973,240.144195" id="Fill-1" fill="#2B2B2B"></path>
                <g id="Group-5" transform="translate(25.798658, 241.863907)">
                    <mask id="mask-2" fill="white">
                        <use xlink:href="#path-1"></use>
                    </mask>
                    <g id="Clip-4"></g>
                    <path d="M19.5060322,0.240446512 L19.5060322,10.0466791 L16.7206094,10.0466791 L16.7206094,8.09765581 C16.7206094,8.09765581 6.97287785,10.0466791 0.0105691275,10.0466791 L0.0105691275,8.64602791 C0.0105691275,8.64602791 13.9360188,7.24453953 15.3274819,0.240446512" id="Fill-3" fill="#2B2B2B" mask="url(#mask-2)"></path>
                </g>
                <path d="M35.4831409,84.1984744 C35.4831409,84.1984744 33.255302,90.7412651 26.3720537,98.1631256 C20.808698,104.16173 15.0256376,108.164428 3.42373154,116.050102 C1.72518121,117.205451 -0.773959732,119.403963 0.231355705,120.415312 C1.23667114,121.42666 4.09865772,117.881916 4.25344966,118.392614 C5.332,121.965823 5.2587651,127.495591 11.2914899,121.42666 C11.2914899,121.42666 11.927302,118.807033 13.3021208,118.392614 C16.6259866,117.3888 26.4977181,113.01187 33.410094,105.243405 C36.6665503,101.583963 39.6991409,95.4463814 41.4534497,92.0941953 C49.5234362,76.6702884 35.4831409,84.1984744 35.4831409,84.1984744" id="Fill-6" fill="#EBAA84"></path>
                <path d="M109.779447,93.4518977 C109.779447,93.4518977 115.855447,109.289386 113.844816,136.598316 C113.708333,138.447712 110.828038,139.686781 110.828038,141.655898 C110.828038,143.678595 113.190695,139.986502 113.844816,140.644549 C114.850132,141.655898 111.723501,144.396921 111.833353,144.689944 C113.513595,149.161479 118.47942,151.941014 120.882856,144.689944 C121.888172,141.655898 120.6024,140.316363 120.882856,137.610502 C121.87985,127.981758 125.212038,104.525665 121.19993,93.4075256 C115.286212,77.0233395 109.779447,93.4518977 109.779447,93.4518977" id="Fill-8" fill="#EBAA84"></path>
                <path d="M63.634553,12.6215163 C63.3041638,16.6158419 58.5122711,22.3557488 58.5122711,22.3557488 C58.5122711,22.3557488 61.9268483,22.9292372 62.4969154,24.0745395 C63.0653181,25.2190047 61.9268483,30.9463535 65.9114926,33.2369581 C69.8961369,35.5267256 73.8816134,34.9540744 73.8816134,34.9540744 L73.8816134,43.5446791 L82.9885396,43.5446791 L82.4193047,29.2275628 L78.4346604,5.74970233 C78.4346604,5.74970233 64.2046201,5.74970233 63.634553,12.6215163" id="Fill-10" fill="#EBAA84"></path>
                <path d="M72.1737423,13.1938326 C72.1737423,13.1938326 72.6023329,18.0278791 74.9491785,18.4741116 C77.2960242,18.9203442 78.434494,18.9203442 79.573796,20.0656465 C80.7122658,21.2109488 80.1421987,28.0827628 81.2806685,28.655414 C82.4199705,29.2280651 85.8345477,30.3733674 87.5422523,24.0742047 C89.2507893,17.7750419 87.5422523,15.4844372 87.5422523,15.4844372 L84.6960779,9.18527442 L72.1737423,13.1938326 Z" id="Fill-12" fill="#1E3463"></path>
                <path d="M48.9676,5.61608372 C48.5689691,6.01794419 48.5631436,6.67180465 48.9642711,7.07115349 C50.013694,8.1159907 52.1300161,9.92854884 54.5276268,10.3304093 C57.942204,10.9030605 86.403949,16.0569209 88.1116537,15.485107 C89.8193584,14.9124558 89.2293181,0.785386047 75.5884859,0.0235255814 C65.3430899,-0.549125581 64.2046201,9.75859535 64.2046201,9.75859535 C64.2046201,9.75859535 57.2855866,8.80250233 55.0960295,8.04064186 C53.7361906,7.5667814 49.9937208,5.35989767 49.9937208,5.35989767 C49.6317074,5.24771163 49.2364054,5.34566512 48.9676,5.61608372" id="Fill-14" fill="#85D3FF"></path>
                <path d="M57.6579195,43.3493581 L72.6511007,38.4868465 L82.646,38.4868465 C82.646,38.4868465 101.387477,43.3493581 106.384926,47.5178233 C111.383208,51.6854512 124.501409,96.1437767 123.876416,109.342381 L112.008201,109.342381 L101.77945,70.8541953 C101.77945,70.8541953 98.2641745,111.791219 97.0141879,115.263963 C95.7650336,118.737544 59.5320671,116.65373 59.5320671,116.65373 L57.2301611,74.3696372 L38.6859195,99.6173581 L27.0465638,94.7540093 C27.0465638,94.7540093 52.0346443,44.7391256 57.6579195,43.3493581" id="Fill-16" fill="#1593FF"></path>
                <path d="M59.3344993,116.567916 L97.2169154,114.450614 C97.2169154,114.450614 103.530097,136.328567 103.530097,144.79694 C103.530097,153.265312 97.9176403,241.481219 97.9176403,241.481219 L92.3060161,241.481219 L75.6384188,146.713312 L54.0457745,192.711265 L46.0057477,243.598521 L39.6917342,243.598521 L40.0237879,183.846893 L59.3344993,116.567916 Z" id="Fill-18" fill="#4B4C4F"></path>
            </g>
            <g id="Group">
                <polygon id="Fill-1" fill="#2B2B2B" points="0 243.184039 16.7233115 251.968761 7.92156863 241.427095 11.0012985 228.525852 5.53805664 227.826588"></polygon>
                <polygon id="Fill-2" fill="#3D3D3D" points="12.4045603 227.99912 23.0388261 217.385418 60.2561159 149.461946 48.7399155 133.542273 36.8619634 133.542273 2.83442527 233.30597 12.4045603 237.550748"></polygon>
                <polygon id="Fill-3" fill="#2B2B2B" points="78.0844863 239.02298 77.5502205 252.656869 100.477 252.656869 86.7806083 246.459247 84.057349 236.822407"></polygon>
                <g id="Group-22" transform="translate(29.925926, 0.534990)">
                    <path d="M58.2152558,16.262717 C58.2152558,16.262717 59.0408593,18.3859844 57.9776087,19.4471788 C56.9143582,20.5083733 56.9143582,26.8764184 56.9143582,26.8764184 C56.9143582,26.8764184 59.0408593,28.9988073 59.0408593,30.0600017 C59.0408593,31.1211962 53.7237264,32.1823906 53.7237264,32.1823906 C53.7237264,32.1823906 50.5339747,39.6116302 47.3442231,40.6728247 C44.1535913,41.7348976 40.9638397,36.4280469 40.9638397,36.4280469 L38.8373386,40.6728247 L28.2030728,34.305658 L32.4569551,24.753151 L39.9005891,6.71108854 L58.2152558,16.262717 Z" id="Fill-4" fill="#EBAA84"></path>
                    <g id="Group-8" transform="translate(30.806100, 0.000000)">
                        <mask id="mask-4" fill="white">
                            <use xlink:href="#path-3"></use>
                        </mask>
                        <g id="Clip-7"></g>
                        <path d="M0.58751634,25.8147847 L8.03115033,28.9983681 L11.2217821,23.6915174 C11.2217821,23.6915174 6.96789978,17.3243507 11.2217821,16.2622778 C15.4747843,15.2010833 15.4747843,22.6303229 15.4747843,22.6303229 L17.6012854,22.6303229 L19.7286667,16.2622778 L29.2988017,16.2622778 C29.2988017,16.2622778 35.6791852,13.0786944 33.5518039,6.71064931 C31.4253028,0.342604167 27.1723007,0.342604167 25.0449194,0.342604167 C22.9184183,0.342604167 20.7919172,3.52706597 20.7919172,3.52706597 L5.90464924,3.52706597 C5.90464924,3.52706597 0.58751634,3.52706597 0.58751634,8.83303819 L0.58751634,25.8147847 Z" id="Fill-6" fill="#1E3463" mask="url(#mask-4)"></path>
                    </g>
                    <path d="M49.4707242,66.1443903 L54.7878571,74.6357028 C54.7878571,74.6357028 62.2314911,64.0220014 66.4853734,59.7763451 C70.7383756,55.5315674 76.0555085,53.4083 76.0555085,53.4083 C76.0555085,53.4083 79.2452601,61.898734 76.0555085,64.0220014 C72.8657569,66.1443903 66.4853734,66.1443903 66.4853734,66.1443903 C66.4853734,66.1443903 60.10499,86.3097201 56.9152383,87.3709146 C53.7246065,88.432109 48.4074736,85.2485257 46.2809725,76.7580917 C44.1535913,68.2676576 49.4707242,66.1443903 49.4707242,66.1443903" id="Fill-9" fill="#EBAA84"></path>
                    <path d="M28.2034248,33.2436729 L40.9641917,39.6117181 L50.5343268,66.1442146 L46.2813246,76.757916 L50.5343268,133.007371 L0.555389978,133.007371 C0.555389978,133.007371 11.1896558,69.3286764 13.3161569,64.0218257" id="Fill-11" fill="#1593FF"></path>
                    <path d="M47.3442231,133.007283 L54.7878571,240.199342 L47.3442231,241.260536 L48.4074736,234.89337 C48.4074736,234.89337 35.6467068,230.647714 23.9500706,158.478585 C23.9500706,158.478585 5.87305098,146.804568 6.93630153,133.007283 L47.3442231,133.007283 Z" id="Fill-13" fill="#494949"></path>
                    <path d="M26.0769237,65.083108 C26.0769237,65.083108 25.0136732,79.9415872 22.8862919,84.1872434 C22.8862919,84.1872434 19.6965403,128.761802 20.7597908,131.945386 C21.8230414,135.129848 25.0136732,143.620282 22.8862919,143.620282 C20.7597908,143.620282 10.1264052,143.620282 11.1896558,140.436698 C12.2529063,137.252236 14.3794074,133.007459 14.3794074,133.007459 C14.3794074,133.007459 10.1264052,71.4511531 14.3794074,60.8374517 L26.0769237,65.083108 Z" id="Fill-15" fill="#EBAA84"></path>
                    <path d="M13.3165089,61.8990854 L34.5841603,69.328325 C34.5841603,69.328325 38.8371625,49.1629951 37.773912,42.7958285 C36.7106614,36.4277833 28.2037769,33.2433215 28.2037769,33.2433215 C28.2037769,33.2433215 15.44301,50.2250681 13.3165089,61.8990854" id="Fill-17" fill="#41A7FF" opacity="0.930000007"></path>
                    <g id="Group-21" transform="translate(68.653595, 45.680556)">
                        <mask id="mask-6" fill="white">
                            <use xlink:href="#path-5"></use>
                        </mask>
                        <g id="Clip-20"></g>
                        <polygon id="Fill-19" fill="#2B2B2B" mask="url(#mask-6)" points="12.0955312 1.22362396 10.3017359 0.0824885417 0.581091068 15.2941135 2.3740061 16.435249"></polygon>
                    </g>
                </g>
            </g>
        </g>
    </g>
</svg>