<?xml version="1.0" encoding="UTF-8"?>
<svg width="121px" height="120px" viewBox="0 0 121 120" version="1.1" xmlns="http://www.w3.org/2000/svg" xmlns:xlink="http://www.w3.org/1999/xlink">
    <!-- Generator: Sketch 49.2 (51160) - http://www.bohemiancoding.com/sketch -->
    <title>Group 8</title>
    <desc>Created with Sketch.</desc>
    <defs></defs>
    <g id="Page-1" stroke="none" stroke-width="1" fill="none" fill-rule="evenodd">
        <g id="首页" transform="translate(-550.000000, -2079.000000)">
            <g id="Group-8" transform="translate(550.000000, 2079.000000)">
                <rect id="Rectangle-13" fill="#FFFFFF" x="0" y="0" width="120.808081" height="120"></rect>
                <g id="Group-2" transform="translate(20.000000, 19.369565)">
                    <path d="M2.28418653,11.218794 L11.5231503,2.05148761 C12.6104041,0.972666464 14.3733057,0.972666464 15.4605596,2.05148761 L77.6748601,63.7836655 C78.762114,64.8624867 78.762114,66.6117152 77.6748601,67.6905363 L68.4363109,76.8574314 C67.349057,77.9362525 65.5861554,77.9362525 64.4989016,76.8574314 L2.28418653,15.1256648 C1.19693264,14.0468436 1.19693264,12.2976151 2.28418653,11.218794" id="Fill-135" fill="#D2EEFF"></path>
                    <g id="Group-138" transform="translate(4.974093, 12.223624)">
                        <path d="M6.27340933,0.076459341 L0.38988601,5.91435007" id="Fill-136" fill="#71C9FF"></path>
                        <path d="M6.27340933,0.076459341 L0.38988601,5.91435007" id="Stroke-137" stroke="#71C9FF" stroke-width="0.829015544"></path>
                    </g>
                    <g id="Group-141" transform="translate(8.704663, 17.570431)">
                        <path d="M3.98267358,0.286095307 L0.179150259,4.0605298" id="Fill-139" fill="#71C9FF"></path>
                        <path d="M3.98267358,0.286095307 L0.179150259,4.0605298" id="Stroke-140" stroke="#71C9FF" stroke-width="0.829015544"></path>
                    </g>
                    <g id="Group-144" transform="translate(12.020725, 20.860773)">
                        <path d="M3.89807254,0.202150436 L0.094134715,3.97617364" id="Fill-142" fill="#71C9FF"></path>
                        <path d="M3.89807254,0.202150436 L0.094134715,3.97617364" id="Stroke-143" stroke="#71C9FF" stroke-width="0.829015544"></path>
                    </g>
                    <g id="Group-147" transform="translate(15.336788, 24.151116)">
                        <path d="M3.81309845,0.117794273 L0.00957512953,3.89222877" id="Fill-145" fill="#71C9FF"></path>
                        <path d="M3.81309845,0.117794273 L0.00957512953,3.89222877" id="Stroke-146" stroke="#71C9FF" stroke-width="0.829015544"></path>
                    </g>
                    <g id="Group-150" transform="translate(18.238342, 27.441459)">
                        <path d="M4.14296373,0.0338494017 L0.339440415,3.8078726" id="Fill-148" fill="#71C9FF"></path>
                        <path d="M4.14296373,0.0338494017 L0.339440415,3.8078726" id="Stroke-149" stroke="#71C9FF" stroke-width="0.829015544"></path>
                    </g>
                    <g id="Group-153" transform="translate(22.383420, 29.086630)">
                        <path d="M6.06209326,0.278075097 L0.178569948,6.11596583" id="Fill-151" fill="#71C9FF"></path>
                        <path d="M6.06209326,0.278075097 L0.178569948,6.11596583" id="Stroke-152" stroke="#71C9FF" stroke-width="0.829015544"></path>
                    </g>
                    <g id="Group-156" transform="translate(43.108808, 51.707737)">
                        <path d="M3.97500518,0.27848639 L0.171481865,4.05250959" id="Fill-154" fill="#71C9FF"></path>
                        <path d="M3.97500518,0.27848639 L0.171481865,4.05250959" id="Stroke-155" stroke="#71C9FF" stroke-width="0.829015544"></path>
                    </g>
                    <g id="Group-159" transform="translate(46.424870, 54.998080)">
                        <path d="M3.88998964,0.194541519 L0.0864663212,3.96856472" id="Fill-157" fill="#71C9FF"></path>
                        <path d="M3.88998964,0.194541519 L0.0864663212,3.96856472" id="Stroke-158" stroke="#71C9FF" stroke-width="0.829015544"></path>
                    </g>
                    <g id="Group-162" transform="translate(60.103627, 68.982037)">
                        <path d="M4.1385285,0.0294485681 L0.334590674,3.80347177" id="Fill-160" fill="#71C9FF"></path>
                        <path d="M4.1385285,0.0294485681 L0.334590674,3.80347177" id="Stroke-161" stroke="#71C9FF" stroke-width="0.829015544"></path>
                    </g>
                    <g id="Group-165" transform="translate(63.419689, 71.861087)">
                        <path d="M4.05351295,0.356385256 L0.249989637,4.13081975" id="Fill-163" fill="#71C9FF"></path>
                        <path d="M4.05351295,0.356385256 L0.249989637,4.13081975" id="Stroke-164" stroke="#71C9FF" stroke-width="0.829015544"></path>
                    </g>
                    <g id="Group-168" transform="translate(49.740933, 58.288423)">
                        <path d="M3.8053886,0.110185355 L0.00186528497,3.88420856" id="Fill-166" fill="#71C9FF"></path>
                        <path d="M3.8053886,0.110185355 L0.00186528497,3.88420856" id="Stroke-167" stroke="#71C9FF" stroke-width="0.829015544"></path>
                    </g>
                    <g id="Group-171" transform="translate(52.642487, 61.578766)">
                        <path d="M4.13529534,0.0262404839 L0.331357513,3.80026369" id="Fill-169" fill="#71C9FF"></path>
                        <path d="M4.13529534,0.0262404839 L0.331357513,3.80026369" id="Stroke-170" stroke="#71C9FF" stroke-width="0.829015544"></path>
                    </g>
                    <g id="Group-174" transform="translate(56.787565, 63.223937)">
                        <path d="M6.05442487,0.27042505 L0.170901554,6.10831578" id="Fill-172" fill="#71C9FF"></path>
                        <path d="M6.05442487,0.27042505 L0.170901554,6.10831578" id="Stroke-173" stroke="#71C9FF" stroke-width="0.829015544"></path>
                    </g>
                    <path d="M45.6435648,46.4297395 L39.760456,52.2672189" id="Fill-175" fill="#E9FFFC"></path>
                    <path d="M71.6911503,67.3185219 C70.5475233,68.4532789 68.6934301,68.4532789 67.5498031,67.3185219 C66.4061762,66.183765 66.4061762,64.3444633 67.5498031,63.2097063 C68.6934301,62.0745381 70.5475233,62.0745381 71.6911503,63.2097063 C72.8347772,64.3444633 72.8347772,66.183765 71.6911503,67.3185219" id="Fill-176" fill="#FFFFFF"></path>
                    <path d="M18.3807668,75.5913486 L3.56045596,60.885984 L63.1397306,1.76839474 C65.3440829,-0.418449347 68.9167254,-0.418449347 71.1206632,1.76839474 L77.9600415,8.55513808 C80.1643938,10.7415709 80.1643938,14.2869153 77.9600415,16.4737593 L18.3807668,75.5913486 Z" id="Fill-177" fill="#1593FF"></path>
                    <path d="M55.8601036,23.7053982 L10.974715,68.2426558" id="Fill-178" fill="#E9FFFC"></path>
                    <polygon id="Fill-179" fill="#EBF6FF" points="63.8636684 30.4612123 49.0516477 15.7644848 55.2659482 9.5979711 70.0779689 24.2951098"></polygon>
                    <polygon id="Fill-180" fill="#D2EEFF" points="3.56049741 60.8860251 18.3808083 75.5913897 0.35842487 78.7706835"></polygon>
                    <polyline id="Fill-283" fill="#71C9FF" points="56.6891192 23.2941053 49.051399 15.7641558 3.56041451 60.8858606 10.974715 68.2426558"></polyline>
                </g>
            </g>
        </g>
    </g>
</svg>