<?xml version="1.0" encoding="UTF-8"?>
<svg width="78px" height="46px" viewBox="0 0 78 46" version="1.1" xmlns="http://www.w3.org/2000/svg" xmlns:xlink="http://www.w3.org/1999/xlink">
    <!-- Generator: Sketch 49.2 (51160) - http://www.bohemiancoding.com/sketch -->
    <title>Group 19</title>
    <desc>Created with Sketch.</desc>
    <defs></defs>
    <g id="Page-1" stroke="none" stroke-width="1" fill="none" fill-rule="evenodd">
        <g id="Group-19" transform="translate(-9.000000, -25.000000)">
            <rect id="Rectangle-12" x="0" y="0" width="96" height="96"></rect>
            <g id="Group-74" transform="translate(9.600000, 25.600000)">
                <polygon id="Fill-50" fill="#D2EEFF" points="43.3136 44.6848 53.7448 44.6848 53.7448 28.4732 43.3136 28.4732"></polygon>
                <path d="M75.72572,38.31336 L21.33292,38.31336 C20.74772,38.31336 20.27332,37.83856 20.27332,37.25376 L20.27332,1.21096 C20.27332,0.62576 20.74772,0.15136 21.33292,0.15136 L75.72572,0.15136 C76.31092,0.15136 76.78492,0.62576 76.78492,1.21096 L76.78492,37.25376 C76.78492,37.83856 76.31092,38.31336 75.72572,38.31336" id="Fill-52" fill="#71C9FF"></path>
                <polygon id="Fill-53" fill="#EBFAFF" points="22.8792 34.7968 74.1792 34.7968 74.1792 3.6676 22.8792 3.6676"></polygon>
                <path d="M75.97452,38.31336 L21.08372,38.31336 C20.63612,38.31336 20.27332,37.95016 20.27332,37.50256 L20.27332,32.34696 L76.78492,32.34696 L76.78492,37.50256 C76.78492,37.95016 76.42212,38.31336 75.97452,38.31336" id="Fill-54" fill="#1593FF"></path>
                <path d="M62.02608,45.12276 L35.03248,45.12276 C35.03248,43.60676 36.26168,42.37796 37.77768,42.37796 L59.28088,42.37796 C60.79688,42.37796 62.02608,43.60676 62.02608,45.12276" id="Fill-55" fill="#1593FF"></path>
                <path d="M50.01984,35.33016 C50.01984,36.15336 49.35264,36.82096 48.52904,36.82096 C47.70584,36.82096 47.03864,36.15336 47.03864,35.33016 C47.03864,34.50656 47.70584,33.83896 48.52904,33.83896 C49.35264,33.83896 50.01984,34.50656 50.01984,35.33016" id="Fill-56" fill="#363D45"></path>
                <path d="M15.74444,44.68488 L1.23764,44.68488 C0.67564,44.68488 0.21964,44.22888 0.21964,43.66688 L0.21964,1.16928 C0.21964,0.60728 0.67564,0.15128 1.23764,0.15128 L15.74444,0.15128 C16.30644,0.15128 16.76244,0.60728 16.76244,1.16928 L16.76244,43.66688 C16.76244,44.22888 16.30644,44.68488 15.74444,44.68488" id="Fill-57" fill="#1593FF"></path>
                <polygon id="Fill-58" fill="#71C9FF" points="1.9828 3.7564 14.8884 3.7564 14.8884 1.9312 1.9828 1.9312"></polygon>
                <polygon id="Fill-59" fill="#D2EEFF" points="1.9828 5.5816 14.8884 5.5816 14.8884 3.7564 1.9828 3.7564"></polygon>
                <polygon id="Fill-60" fill="#71C9FF" points="1.9828 9.194 14.8884 9.194 14.8884 7.6564 1.9828 7.6564"></polygon>
                <polygon id="Fill-61" fill="#363D45" points="9.03 12.2168 10.3116 12.2168 10.3116 10.7728 9.03 10.7728"></polygon>
                <polygon id="Fill-62" fill="#363D45" points="12.0852 12.2168 14.8884 12.2168 14.8884 10.7728 12.0852 10.7728"></polygon>
                <polygon id="Fill-63" fill="#71C9FF" points="2.0384 42.378 14.9436 42.378 14.9436 23.9852 2.0384 23.9852"></polygon>
                <polygon id="Fill-64" fill="#D2EEFF" points="3.0352 26.114 13.8976 26.114 13.8976 25.57 3.0352 25.57"></polygon>
                <polygon id="Fill-65" fill="#D2EEFF" points="3.0352 27.7464 13.8976 27.7464 13.8976 27.2024 3.0352 27.2024"></polygon>
                <polygon id="Fill-66" fill="#D2EEFF" points="3.0352 29.3792 13.8976 29.3792 13.8976 28.8352 3.0352 28.8352"></polygon>
                <polygon id="Fill-67" fill="#D2EEFF" points="3.0352 31.0116 13.8976 31.0116 13.8976 30.4676 3.0352 30.4676"></polygon>
                <polygon id="Fill-68" fill="#D2EEFF" points="3.0596 32.644 13.9224 32.644 13.9224 32.1 3.0596 32.1"></polygon>
                <polygon id="Fill-69" fill="#D2EEFF" points="3.0596 34.2764 13.9224 34.2764 13.9224 33.7324 3.0596 33.7324"></polygon>
                <polygon id="Fill-70" fill="#D2EEFF" points="3.0596 35.9088 13.9224 35.9088 13.9224 35.3648 3.0596 35.3648"></polygon>
                <polygon id="Fill-71" fill="#D2EEFF" points="3.0596 37.5412 13.9224 37.5412 13.9224 36.9972 3.0596 36.9972"></polygon>
                <polygon id="Fill-72" fill="#D2EEFF" points="3.0596 39.1736 13.9224 39.1736 13.9224 38.6296 3.0596 38.6296"></polygon>
                <polygon id="Fill-73" fill="#D2EEFF" points="3.0596 40.806 13.9224 40.806 13.9224 40.262 3.0596 40.262"></polygon>
            </g>
        </g>
    </g>
</svg>