<?xml version="1.0" encoding="UTF-8"?>
<svg width="77px" height="64px" viewBox="0 0 77 64" version="1.1" xmlns="http://www.w3.org/2000/svg" xmlns:xlink="http://www.w3.org/1999/xlink">
    <!-- Generator: Sketch 49.2 (51160) - http://www.bohemiancoding.com/sketch -->
    <title>Group 6</title>
    <desc>Created with Sketch.</desc>
    <defs></defs>
    <g id="Page-1" stroke="none" stroke-width="1" fill="none" fill-rule="evenodd">
        <g id="Group-6">
            <g id="Group-2">
                <path d="M74.4255069,22.8740894 L56.692369,22.8740894 C55.8381621,22.8740894 55.0571621,22.3952188 54.6759552,21.6362541 L45.5838862,3.56491294 C45.2349207,2.87107765 45.2728517,2.04811294 45.6832655,1.38853647 C46.0940586,0.729336471 46.8196793,0.328018824 47.6003,0.328018824 L56.4666793,0.328018824 C57.0701621,0.328018824 57.648231,0.567830588 58.0719207,0.994371765 L76.0299897,19.0657129 C76.668369,19.7079718 76.855369,20.6683482 76.5048862,21.5003482 C76.1544034,22.3327247 75.3343345,22.8740894 74.4255069,22.8740894" id="Fill-112" fill="#D2EEFF"></path>
                <path d="M20.3248897,22.8740894 L2.59175172,22.8740894 C1.68292414,22.8740894 0.862855172,22.3323482 0.512372414,21.5003482 C0.161889655,20.6679718 0.348510345,19.7079718 0.987268966,19.0657129 L18.9453379,0.994371765 C19.3686483,0.567830588 19.9470966,0.328018824 20.5502,0.328018824 L29.4169586,0.328018824 C30.1975793,0.328018824 30.9228207,0.729336471 31.3336138,1.38853647 C31.7444069,2.04811294 31.7823379,2.87107765 31.4333724,3.56491294 L22.3413034,21.6362541 C21.9600966,22.3952188 21.1790966,22.8740894 20.3248897,22.8740894" id="Fill-113" fill="#D2EEFF"></path>
                <polygon id="Fill-114" fill="#71C9FF" points="17.8041828 20.5785224 29.416769 0.328169412 47.6005276 0.328169412 59.1774586 20.5785224"></polygon>
                <path d="M54.2535552,20.5785224 L36.4475897,60.5073694 C35.9962103,61.5181929 36.3573138,62.7044518 37.2968655,63.2992753 C37.6704862,63.5353224 38.0907621,63.6497694 38.5072448,63.6497694 C39.1395552,63.6497694 39.7639,63.3866165 40.2057966,62.8851576 L76.1223138,22.1092518 C76.5020034,21.6785694 76.6916586,21.1300518 76.6772448,20.5785224 L54.2535552,20.5785224 Z" id="Fill-115" fill="#1593FF"></path>
                <path d="M22.7637414,20.5785224 L0.339672414,20.5785224 C0.325637931,21.1300518 0.515293103,21.6785694 0.894982759,22.1092518 L36.8115,62.8855341 C37.2530172,63.3869929 37.8777414,63.6501459 38.5096724,63.6501459 C38.9265345,63.6501459 39.3468103,63.5353224 39.7200517,63.2992753 C40.6596034,62.7048282 41.0207069,61.5181929 40.5697069,60.5073694 L22.7637414,20.5785224 Z" id="Fill-116" fill="#71C9FF"></path>
                <path d="M17.8041828,20.5785224 L36.4472862,62.3181929 C36.808769,63.1276047 37.6163207,63.6497694 38.5088379,63.6497694 C39.4009759,63.6497694 40.2089069,63.1276047 40.5700103,62.3181929 L59.1774586,20.5785224 L17.8041828,20.5785224 Z" id="Fill-117" fill="#EBFAFF"></path>
                <polygon id="Fill-118" fill="#1593FF" points="38.490669 20.5785224 59.1774966 20.5785224 47.6005655 0.328169412 38.490669 0.328169412"></polygon>
                <path d="M38.5088379,63.6498447 C39.4009759,63.6498447 40.2089069,63.12768 40.5700103,62.3182682 L59.1774586,20.5785976 L38.5088379,20.5785976 L38.5088379,63.6498447 Z" id="Fill-119" fill="#71C9FF"></path>
            </g>
        </g>
    </g>
</svg>