<?xml version="1.0" encoding="UTF-8"?>
<svg width="120px" height="120px" viewBox="0 0 120 120" version="1.1" xmlns="http://www.w3.org/2000/svg" xmlns:xlink="http://www.w3.org/1999/xlink">
    <!-- Generator: Sketch 49.2 (51160) - http://www.bohemiancoding.com/sketch -->
    <title>Group 28</title>
    <desc>Created with Sketch.</desc>
    <defs></defs>
    <g id="Page-1" stroke="none" stroke-width="1" fill="none" fill-rule="evenodd">
        <g id="首页" transform="translate(-1311.000000, -2084.000000)">
            <g id="Group-28" transform="translate(1311.000000, 2084.000000)">
                <g id="Group-9" fill="#FFFFFF">
                    <g id="Group-12">
                        <rect id="Rectangle-11" x="0" y="0" width="120" height="119.197324"></rect>
                    </g>
                </g>
                <g id="秀推LOGO" transform="translate(24.000000, 24.000000)">
                    <g id="Group">
                        <path d="M4.30515464,4.57127883 C-0.890721649,9.7324001 -0.890721649,18.211385 4.30515464,23.3725063 L15.4391753,34.4320519 L27.7608247,34.4320519 L10.4659794,17.2528911 C8.68453608,15.4833638 8.68453608,12.5341516 10.4659794,10.690894 C12.2474227,8.92136676 15.2164948,8.92136676 17.0721649,10.690894 L34.3670103,27.8700548 L34.3670103,15.6308244 L23.2329897,4.57127883 C17.9628866,-0.58984243 9.50103093,-0.58984243 4.30515464,4.57127883 Z" id="XMLID_11_" fill="#2EB2E8"></path>
                        <path d="M67.1752577,48.293349 L56.3381443,37.5287246 C56.3381443,37.5287246 56.3381443,37.5287246 56.3381443,37.5287246 L44.0907216,37.5287246 C44.0907216,37.5287246 44.0907216,37.5287246 44.0907216,37.6024549 L61.1628866,54.5604248 C62.9443299,56.3299521 63.1670103,59.3528945 61.385567,61.1961521 C59.6041237,63.11314 56.5608247,63.11314 54.7051546,61.2698824 L37.4845361,44.164452 C37.4845361,44.164452 37.4103093,44.164452 37.4103093,44.164452 L37.4103093,56.3299521 C37.4103093,56.3299521 37.4103093,56.3299521 37.4103093,56.3299521 L48.5443299,67.3894976 C53.5175258,72.329428 61.385567,72.5506189 66.6556701,68.1268007 C72.742268,62.9656794 72.8164948,53.896852 67.1752577,48.293349 Z" id="XMLID_10_" fill="#2EB2E8"></path>
                        <path d="M10.4659794,61.1961521 C8.68453608,59.4266248 8.68453608,56.4774127 10.4659794,54.6341551 L27.7608247,37.4549943 L15.4391753,37.4549943 L4.30515464,48.5145399 C-0.890721649,53.6756611 -0.890721649,62.1546461 4.30515464,67.3157673 C9.50103093,72.4768886 18.0371134,72.4768886 23.2329897,67.3157673 L34.3670103,56.2562218 L34.3670103,44.0169913 L16.9979381,61.1961521 C15.2164948,63.0394097 12.2474227,63.0394097 10.4659794,61.1961521 Z" id="XMLID_9_" fill="#2EB2E8"></path>
                        <path d="M67.4721649,23.3725063 C72.6680412,18.211385 72.6680412,9.7324001 67.4721649,4.57127883 C62.2762887,-0.58984243 53.7402062,-0.58984243 48.5443299,4.57127883 C43.3484536,9.7324001 43.3484536,18.211385 48.5443299,23.3725063 C53.7402062,28.6073579 62.2762887,28.6073579 67.4721649,23.3725063 Z M54.7051546,10.690894 C56.5608247,8.84763645 59.4556701,8.84763645 61.3113402,10.690894 C63.1670103,12.5341516 63.1670103,15.4096335 61.3113402,17.2528911 C59.4556701,19.0961487 56.5608247,19.0961487 54.7051546,17.2528911 C52.9237113,15.4833638 52.9237113,12.5341516 54.7051546,10.690894 Z" id="XMLID_6_" fill="#EA5719"></path>
                    </g>
                </g>
            </g>
        </g>
    </g>
</svg>